<svg width="27" height="31" viewBox="0 0 27 31" fill="none" xmlns="http://www.w3.org/2000/svg">
<path d="M25.1604 11.9365V22.0397L13.9608 28.4618L2.76111 21.9613V9.03867L13.9608 2.53818L22.5759 7.55061L23.9073 6.76742L13.9608 1.05011L1.42969 8.25548V22.7445L13.9608 29.9499L26.4918 22.7445V11.1533L25.1604 11.9365Z" fill="white" stroke="white"/>
<path d="M10.8277 22.0398H8.94803V15.7742H15.2136C15.8401 15.7742 16.3884 15.5393 16.78 15.0694C17.1715 14.6778 17.4065 14.0512 17.4065 13.503C17.4065 13.1897 17.3282 12.9547 17.2499 12.6415C17.1715 12.4065 16.9366 12.0932 16.78 11.9366C16.545 11.7016 16.31 11.545 16.0751 11.4667C15.8401 11.3884 15.5268 11.2317 15.2136 11.2317H8.94803V9.35205H15.2136C16.31 9.35205 17.3282 9.82197 18.1114 10.6052C18.8946 11.3884 19.3645 12.4065 19.3645 13.503C19.3645 14.3645 19.1295 15.1477 18.6596 15.8525C18.1897 16.4791 17.5631 17.0273 16.8583 17.3406C16.1534 17.5756 15.3702 17.6539 14.587 17.6539H10.8277V22.0398Z" fill="white" stroke="white"/>
<path d="M19.2863 21.883H17.0934L15.3704 18.9069C16.0752 18.8286 16.7018 18.7503 17.3283 18.5153L19.2863 21.883Z" fill="white" stroke="white"/>
<path d="M23.9075 9.82181L25.2389 10.5267L26.5703 9.82181V8.25542L25.2389 7.47223L23.9075 8.25542V9.82181Z" fill="white"/>
</svg>
