<svg width="16" height="12" viewBox="0 0 16 12" fill="none" xmlns="http://www.w3.org/2000/svg">
<path d="M13.538 0.997242C12.5247 0.532362 11.4275 0.19495 10.2846 0C10.2645 0.000281706 10.2453 0.00836692 10.2313 0.0224943C10.0941 0.26993 9.93411 0.592347 9.82744 0.839782C8.61521 0.659942 7.38243 0.659942 6.1702 0.839782C6.06353 0.584848 5.90353 0.26993 5.75876 0.0224943C5.75114 0.00749822 5.72828 0 5.70542 0C4.56254 0.19495 3.47298 0.532362 2.452 0.997242C2.44438 0.997242 2.43676 1.00474 2.42914 1.01224C0.356706 4.06395 -0.214738 7.03318 0.0671745 9.97242C0.0671745 9.98741 0.0747937 10.0024 0.0900322 10.0099C1.4615 10.9997 2.77963 11.5995 4.08252 11.9969C4.10538 12.0044 4.12824 11.9969 4.13586 11.9819C4.44063 11.5695 4.71492 11.1346 4.95112 10.6772C4.96636 10.6472 4.95112 10.6173 4.92064 10.6098C4.48634 10.4448 4.0749 10.2498 3.67108 10.0249C3.64061 10.0099 3.64061 9.96492 3.66346 9.94243C3.74728 9.88244 3.83109 9.81496 3.9149 9.75497C3.93014 9.73998 3.953 9.73998 3.96823 9.74748C6.58926 10.9247 9.416 10.9247 12.0065 9.74748C12.0218 9.73998 12.0446 9.73998 12.0599 9.75497C12.1437 9.82246 12.2275 9.88244 12.3113 9.94992C12.3418 9.97242 12.3418 10.0174 12.3037 10.0324C11.9075 10.2648 11.4884 10.4523 11.0541 10.6173C11.0237 10.6247 11.016 10.6622 11.0237 10.6847C11.2675 11.1421 11.5418 11.577 11.8389 11.9894C11.8618 11.9969 11.8846 12.0044 11.9075 11.9969C13.218 11.5995 14.5361 10.9997 15.9076 10.0099C15.9228 10.0024 15.9305 9.98741 15.9305 9.97242C16.2657 6.5758 15.3743 3.62906 13.5685 1.01224C13.5609 1.00474 13.5533 0.997242 13.538 0.997242ZM5.34732 8.18038C4.56254 8.18038 3.90728 7.46807 3.90728 6.59079C3.90728 5.71352 4.5473 5.0012 5.34732 5.0012C6.15496 5.0012 6.79498 5.72102 6.78736 6.59079C6.78736 7.46807 6.14734 8.18038 5.34732 8.18038ZM10.6579 8.18038C9.87316 8.18038 9.2179 7.46807 9.2179 6.59079C9.2179 5.71352 9.85792 5.0012 10.6579 5.0012C11.4656 5.0012 12.1056 5.72102 12.098 6.59079C12.098 7.46807 11.4656 8.18038 10.6579 8.18038Z" fill="white"/>
</svg>
