<svg width="24" height="24" viewBox="0 0 24 24" fill="none" xmlns="http://www.w3.org/2000/svg">
<path d="M21.546 7.9395C21.2647 7.6583 20.8832 7.50032 20.4855 7.50032C20.0878 7.50032 19.7063 7.6583 19.425 7.9395L12 15.3645L4.575 7.93951C4.2921 7.66627 3.9132 7.51508 3.5199 7.5185C3.1266 7.52191 2.75039 7.67967 2.47227 7.95778C2.19416 8.23589 2.03641 8.61211 2.03299 9.0054C2.02957 9.3987 2.18077 9.7776 2.454 10.0605L10.9395 18.546C11.2208 18.8272 11.6023 18.9852 12 18.9852C12.3977 18.9852 12.7792 18.8272 13.0605 18.546L21.546 10.0605C21.8272 9.77921 21.9852 9.39775 21.9852 9C21.9852 8.60226 21.8272 8.2208 21.546 7.9395Z" fill="white"/>
</svg>
