<svg width="25" height="25" viewBox="0 0 25 25" fill="none" xmlns="http://www.w3.org/2000/svg">
<g clip-path="url(#clip0_0_163)">
<path d="M19.25 0.5H8.75C8.08488 0.500549 7.43873 0.721737 6.9128 1.12891C6.38687 1.53608 6.01089 2.10622 5.84375 2.75H16.5312C17.4512 2.75 18.3335 3.11546 18.984 3.76597C19.6345 4.41649 20 5.29878 20 6.21875V20.5105L21.0312 21.3355C21.1591 21.4378 21.3169 21.4955 21.4806 21.4997C21.6443 21.504 21.8049 21.4545 21.9378 21.3589C22.036 21.2864 22.1156 21.1915 22.1699 21.0821C22.2242 20.9727 22.2516 20.8519 22.25 20.7298V3.5C22.25 2.70435 21.9339 1.94129 21.3713 1.37868C20.8087 0.816071 20.0456 0.5 19.25 0.5Z" fill="white"/>
<path d="M15.5 4.25H5.75C4.95435 4.25 4.19129 4.56607 3.62868 5.12868C3.06607 5.69129 2.75 6.45435 2.75 7.25V23.7322C2.74815 23.8538 2.77524 23.974 2.82903 24.0831C2.88282 24.1922 2.96177 24.2868 3.05937 24.3594C3.19496 24.4578 3.35961 24.5081 3.52706 24.502C3.69452 24.496 3.85513 24.4341 3.98328 24.3261L10.625 18.7306L17.2667 24.3237C17.394 24.431 17.5534 24.4929 17.7198 24.4996C17.8861 24.5063 18.0499 24.4575 18.1855 24.3608C18.2843 24.2884 18.3644 24.1935 18.4191 24.0839C18.4738 23.9743 18.5016 23.8533 18.5 23.7308V7.25C18.5 6.45435 18.1839 5.69129 17.6213 5.12868C17.0587 4.56607 16.2956 4.25 15.5 4.25Z" fill="white"/>
</g>
<defs>
<clipPath id="clip0_0_163">
<rect width="24" height="24" fill="white" transform="translate(0.5 0.5)"/>
</clipPath>
</defs>
</svg>
