<svg width="16" height="16" viewBox="0 0 16 16" fill="none" xmlns="http://www.w3.org/2000/svg">
<path d="M16 3.55556V16H0V0H12.4444L16 3.55556ZM8 13.3333C8.74074 13.3333 9.37037 13.0741 9.88889 12.5556C10.4074 12.037 10.6667 11.4074 10.6667 10.6667C10.6667 9.92593 10.4074 9.2963 9.88889 8.77778C9.37037 8.25926 8.74074 8 8 8C7.25926 8 6.62963 8.25926 6.11111 8.77778C5.59259 9.2963 5.33333 9.92593 5.33333 10.6667C5.33333 11.4074 5.59259 12.037 6.11111 12.5556C6.62963 13.0741 7.25926 13.3333 8 13.3333ZM2.66667 6.22222H10.6667V2.66667H2.66667V6.22222Z" fill="white"/>
</svg>
