<svg width="24" height="24" viewBox="0 0 24 24" fill="none" xmlns="http://www.w3.org/2000/svg">
<path d="M11.4 18.161L18.796 10.765C17.5518 10.2452 16.4217 9.4862 15.47 8.531C14.5143 7.57905 13.7549 6.44865 13.235 5.204L5.83899 12.6C5.26199 13.177 4.97299 13.466 4.72499 13.784C4.43238 14.1595 4.18125 14.5655 3.97599 14.995C3.80299 15.359 3.67399 15.747 3.41599 16.521L2.05399 20.604C1.9913 20.791 1.982 20.9917 2.02713 21.1836C2.07226 21.3756 2.17004 21.5511 2.30946 21.6905C2.44888 21.83 2.62443 21.9277 2.81638 21.9729C3.00832 22.018 3.20904 22.0087 3.39599 21.946L7.47899 20.584C8.25399 20.326 8.64099 20.197 9.00499 20.024C9.43632 19.8187 9.83999 19.569 10.216 19.275C10.534 19.027 10.823 18.738 11.4 18.161ZM20.848 8.713C21.5854 7.97557 21.9997 6.97539 21.9997 5.9325C21.9997 4.88961 21.5854 3.88944 20.848 3.152C20.1106 2.41457 19.1104 2.00028 18.0675 2.00028C17.0246 2.00028 16.0244 2.41457 15.287 3.152L14.4 4.039L14.438 4.15C14.875 5.40078 15.5903 6.53599 16.53 7.47C17.4919 8.43782 18.6669 9.16725 19.961 9.6L20.848 8.713Z" fill="white"/>
</svg>
