<svg width="32" height="28" viewBox="0 0 32 28" fill="none" xmlns="http://www.w3.org/2000/svg">
<path d="M31.8342 22.0759L26.5516 27.6196C26.4365 27.7408 26.2975 27.8366 26.1436 27.9008C25.9892 27.968 25.8225 28.0017 25.6542 27.9999H0.612984C0.494016 28 0.377475 27.9661 0.276985 27.9022C0.177411 27.8389 0.0985786 27.7477 0.0503189 27.6397C0.00302885 27.5326 -0.0113623 27.4137 0.00898572 27.2983C0.029168 27.1822 0.0835052 27.075 0.164985 26.9903L5.45164 21.4479C5.56632 21.3268 5.7048 21.2311 5.8583 21.1667C6.01218 21.0993 6.17843 21.0651 6.3463 21.0662H31.3862C31.5053 21.0665 31.6219 21.1009 31.7222 21.1653C31.8218 21.2286 31.9006 21.3199 31.9489 21.4278C31.9962 21.535 32.0106 21.6538 31.9902 21.7693C31.97 21.8853 31.9157 21.9912 31.8342 22.0759ZM26.5516 10.9161C26.4365 10.7949 26.2975 10.6992 26.1436 10.6349C25.9893 10.5673 25.8226 10.5331 25.6542 10.5345H0.612984C0.494016 10.5344 0.377475 10.5683 0.276985 10.6322C0.177212 10.6958 0.0983592 10.7876 0.0503189 10.896C0.00329506 11.0028 -0.0110911 11.1212 0.00898572 11.2362C0.029168 11.3522 0.0835052 11.4594 0.164985 11.5441L5.45164 17.0879C5.56632 17.2089 5.7048 17.3047 5.8583 17.3691C6.01228 17.436 6.17852 17.4698 6.3463 17.4682H31.3862C31.5052 17.4683 31.6217 17.4344 31.7222 17.3704C31.8218 17.3072 31.9006 17.2159 31.9489 17.108C31.9962 17.0008 32.0106 16.8819 31.9902 16.7665C31.97 16.6505 31.9157 16.5432 31.8342 16.4585L26.5516 10.9161ZM0.612984 6.93374H25.6556C25.8239 6.9351 25.9906 6.90088 26.1449 6.83331C26.2989 6.76906 26.4378 6.67329 26.5529 6.55211L31.8356 1.00837C31.917 0.923675 31.9714 0.816399 31.9916 0.700386C32.0112 0.585271 31.9964 0.466884 31.9489 0.360263C31.9006 0.252325 31.8218 0.161045 31.7222 0.097806C31.6217 0.0338518 31.5052 -5.34175e-05 31.3862 5.40317e-05H6.3463C6.17852 -0.00154149 6.01228 0.0322153 5.8583 0.099145C5.7048 0.163557 5.56632 0.259318 5.45164 0.380349L0.166319 5.92542C0.0848385 6.01012 0.0305013 6.1174 0.0103191 6.23341C-0.0101758 6.34826 0.00374574 6.46664 0.0503189 6.57353C0.0985786 6.68147 0.177411 6.77275 0.276985 6.83599C0.377333 6.90041 0.493884 6.93345 0.612984 6.93374Z" fill="white"/>
</svg>
