<svg width="32" height="28" viewBox="0 0 32 28" fill="none" xmlns="http://www.w3.org/2000/svg">
<path fill-rule="evenodd" clip-rule="evenodd" d="M28.6853 0.191557C29.0788 0.0219435 29.5094 -0.036555 29.9324 0.0221494C30.3555 0.0808537 30.7554 0.254615 31.0906 0.525348C31.4258 0.79608 31.684 1.15389 31.8384 1.56152C31.9927 1.96916 32.0376 2.41173 31.9683 2.84316L28.3574 25.2774C28.0071 27.4415 25.6889 28.6825 23.7513 27.6045C22.1305 26.7027 19.7232 25.3133 17.5579 23.8636C16.4753 23.1379 13.1588 20.8141 13.5664 19.1605C13.9167 17.7466 19.4892 12.4336 22.6734 9.27486C23.9233 8.03385 23.3533 7.31795 21.8774 8.45948C18.2123 11.2937 12.3277 15.6038 10.3821 16.8171C8.66582 17.8869 7.77104 18.0695 6.70112 17.8869C4.74916 17.5542 2.93891 17.0389 1.4614 16.411C-0.535136 15.563 -0.438016 12.7516 1.45981 11.933L28.6853 0.191557Z" fill="white"/>
</svg>
