<svg width="48" height="48" viewBox="0 0 48 48" fill="none" xmlns="http://www.w3.org/2000/svg">
<path d="M10.26 38.4C14.854 38.4 18.306 34.56 20.366 31.528C20.1204 32.1626 19.9884 32.8356 19.976 33.516C19.976 35.286 21.036 36.548 23.124 36.548C25.99 36.548 29.054 34.132 30.64 31.528C30.5384 31.8684 30.4825 32.2208 30.474 32.576C30.474 33.81 31.198 34.588 32.674 34.588C37.322 34.588 42 26.67 42 19.746C42 14.35 39.16 9.59998 32.032 9.59998C19.504 9.59998 6 24.308 6 33.81C6 37.542 8.088 38.4 10.26 38.4ZM27.718 19.156C27.718 17.814 28.498 16.874 29.638 16.874C30.752 16.874 31.532 17.814 31.532 19.154C31.532 20.498 30.752 21.464 29.638 21.464C28.498 21.464 27.718 20.498 27.718 19.156ZM33.676 19.156C33.676 17.814 34.456 16.874 35.596 16.874C36.71 16.874 37.49 17.814 37.49 19.154C37.49 20.498 36.71 21.464 35.596 21.464C34.456 21.464 33.676 20.498 33.676 19.156Z" fill="#AB9FF2"/>
<rect x="42" y="42" width="6" height="6" rx="3" fill="#2FFF00"/>
</svg>
